<svg xmlns="http://www.w3.org/2000/svg" viewBox="0 0 460 460" xmlns:v="https://vecta.io/nano"><path d="M239.726 383.866l-47.513 12.205c-3.379.868-6.861 1.308-10.349 1.308-11.111 0-21.558-4.327-29.415-12.184-10.35-10.35-14.517-25.587-10.876-39.764l1.08-4.203h-40.247c-13.807 0-25-11.193-25-25s11.193-25 25-25h53.455c3.484-9.488 9.001-18.144 16.183-25.327l18.673-18.673h-88.311c-13.807 0-25-11.193-25-25s11.193-25 25-25h138.311l44.037-44.036c-.444.023-.89.036-1.339.036H102.407c-13.807 0-25-11.193-25-25s11.193-25 25-25h181.008c13.807 0 25 11.193 25 25 0 .449-.013.896-.036 1.339l60.654-60.654a70.74 70.74 0 0 1 16.17-12.107v-28.46C385.203 12.691 372.511 0 356.856 0H28.966C13.311 0 .62 12.691.62 28.346v403.307C.62 447.309 13.311 460 28.966 460h327.89c15.655 0 28.346-12.691 28.346-28.346V252.142L271.744 365.6a69.9 69.9 0 0 1-32.018 18.266zm-46.468-96.751c-5.047 5.047-8.646 11.356-10.422 18.269l-12.205 47.512a11.6 11.6 0 0 0 3.032 11.087c2.203 2.203 5.164 3.397 8.202 3.397.961 0 1.93-.12 2.885-.365l47.512-12.205c6.913-1.776 13.222-5.375 18.269-10.422l161.327-161.327-57.273-57.273-161.327 161.327zM447.519 90.127c-7.908-7.908-18.272-11.862-28.636-11.862s-20.729 3.954-28.636 11.862l-14.458 14.458 57.199 57.346 14.532-14.532c15.814-15.815 15.814-41.457-.001-57.272z"/></svg>