<svg xmlns="http://www.w3.org/2000/svg" height="512" viewBox="0 0 24 24" width="512" xmlns:v="https://vecta.io/nano"><path d="M14.25 0H2.75A2.75 2.75 0 0 0 0 2.75v15.5A2.75 2.75 0 0 0 2.75 21h6.59a8.73 8.73 0 0 1-.84-3.75c0-1.15.22-2.25.63-3.26-.04.01-.08.01-.13.01H4c-.55 0-1-.45-1-1s.45-1 1-1h5a.99.99 0 0 1 .88.54c.65-1.01 1.49-1.87 2.48-2.54H4c-.55 0-1-.45-1-1s.45-1 1-1h9c.55 0 1 .45 1 1 0 .05 0 .09-.01.13A8.38 8.38 0 0 1 17 8.51V2.75A2.75 2.75 0 0 0 14.25 0zM8 6H4c-.55 0-1-.45-1-1s.45-1 1-1h4c.55 0 1 .45 1 1s-.45 1-1 1zm9.25 4.5a6.76 6.76 0 0 0-6.75 6.75A6.76 6.76 0 0 0 17.25 24 6.76 6.76 0 0 0 24 17.25a6.76 6.76 0 0 0-6.75-6.75zM20 18.25h-1.75V20a1 1 0 1 1-2 0v-1.75H14.5a1 1 0 1 1 0-2h1.75V14.5a1 1 0 1 1 2 0v1.75H20a1 1 0 1 1 0 2z"/></svg>